<svg width="50" height="50" viewBox="0 0 50 50" xmlns="http://www.w3.org/2000/svg">
<path fill-rule="evenodd" clip-rule="evenodd" d="M44.7441 9.66943C48.1583 14.0497 50.0085 19.4465 49.9999 25.0002C49.9999 38.8053 38.805 50.0002 25.0006 50.0002C15.2871 50.0002 6.86597 44.4579 2.72751 36.3649H13.6237C18.816 36.3649 22.4429 33.5662 22.4429 29.0925C22.4429 19.6111 11.5051 23.4739 11.5051 20.1092C11.5051 18.488 12.8057 17.8983 15.1858 17.8983H22.7692C24.8711 17.8983 27.3435 18.2752 27.3435 20.5688V28.1245C27.3435 33.5957 31.6159 36.3643 36.0441 36.3643C40.548 36.3643 44.7435 33.5957 44.7435 28.1245V9.66943H44.7441Z" />
<path fill-rule="evenodd" clip-rule="evenodd" d="M25.0005 2.43241e-05C30.0173 -0.00698868 34.919 1.50262 39.0626 4.33079V28.3013C39.0626 29.9628 37.7037 31.3224 36.0447 31.3224C34.3838 31.3224 33.0261 29.9628 33.0261 28.3013V21.1186C33.0261 15.3846 30.1242 12.9994 26.3447 12.9994H14.0441C9.59088 12.9994 5.89665 15.834 5.89665 20.3289C5.89665 22.6289 6.8819 25.9994 11.5415 26.8353C15.337 27.5186 16.8351 27.3199 16.8351 29.3506C16.8351 31.3224 14.6261 31.3224 11.7101 31.3224H0.808189C0.269676 29.2582 -0.0019826 27.1334 -0.000143311 25C-0.000143311 11.1981 11.196 2.43241e-05 25.0005 2.43241e-05Z" />
</svg>
